<svg width="448" height="448" viewBox="0 0 448 448" fill="none" xmlns="http://www.w3.org/2000/svg">
<rect width="448" height="448" rx="128" fill="white"/>
<path d="M125.103 25.2022C131.612 21.9605 139.336 22.3173 145.519 26.1455C151.701 29.9737 155.464 36.7281 155.464 44V58.291C155.464 66.4216 150.77 73.8212 143.415 77.2871L116.943 89.7627L142.567 100.48C150.378 103.748 155.464 111.387 155.464 119.854V134.146C155.464 141.236 151.885 147.847 145.949 151.726C143.157 153.55 140.02 154.653 136.806 155.014L145.105 169.497L155.067 152.453C158.833 146.01 165.735 142.05 173.197 142.05H195.41C200.052 142.05 204.475 143.583 208.061 146.288L208.779 144.361C211.845 136.15 219.688 130.705 228.453 130.705H244.241C247.751 130.705 251.147 131.582 254.152 133.191C255.313 132.993 256.506 132.889 257.724 132.889H277.917C289.515 132.889 298.917 142.291 298.917 153.889V177.669C300.651 177.497 302.402 177.412 304.168 177.412C318.359 177.412 331.332 182.692 340.833 193.879C350.442 204.913 353.806 218.956 353.806 233.041V278.48C353.805 290.078 344.403 299.48 332.806 299.48H331.752L408.62 337.759C415.751 341.31 420.259 348.591 420.259 356.558V365.719C420.259 374.054 415.329 381.601 407.695 384.949L321.231 422.877C314.738 425.725 307.246 425.104 301.31 421.226C295.374 417.347 291.796 410.736 291.796 403.646V389.354C291.796 380.869 296.901 373.218 304.735 369.962L330.313 359.331L303.803 346.769C296.47 343.294 291.796 335.905 291.796 327.791V313.5C291.796 306.442 295.339 299.872 301.2 295.991C298.891 294.459 296.902 292.482 295.356 290.183C291.586 295.79 285.182 299.48 277.917 299.48H257.724C246.126 299.48 236.724 290.078 236.724 278.48V231.896L215.084 289.87C212.019 298.082 204.175 303.526 195.41 303.526H179.623C173.882 303.526 168.445 301.18 164.521 297.12C161.624 298.628 158.332 299.479 154.84 299.479H134.464C122.866 299.479 113.464 290.077 113.464 278.479V236.985L75.8486 173.791C71.9857 167.301 71.905 159.237 75.6377 152.671C79.3704 146.105 86.3412 142.05 93.8936 142.05H100.207L39.5645 115.449C31.9307 112.101 27 104.554 27 96.2178V87.0566C27.0002 79.0904 31.5077 71.8099 38.6387 68.2588L125.103 25.2022ZM312.796 327.791L382.003 360.588L312.796 389.354V403.646L399.259 365.719V356.558L312.796 313.5V327.791ZM228.453 151.705L179.623 282.526H195.41L219.825 217.115L244.241 151.705H228.453ZM257.724 153.889V278.48H277.917V239.454C277.917 231.393 279.691 225.468 283.24 221.682C286.789 217.773 291.44 215.818 297.192 215.818L297.692 215.823C302.82 215.93 306.569 217.7 308.94 221.132C311.51 224.674 312.796 229.743 312.796 236.339V278.48H332.806V233.041C332.806 222.048 330.174 213.558 324.912 207.573C319.772 201.466 312.857 198.412 304.168 198.412C298.539 198.412 293.398 199.817 288.748 202.626C284.22 205.313 280.609 209.406 277.917 214.902V153.889H257.724ZM93.8936 163.05L134.464 231.209V278.479H154.84V231.025L195.41 163.05H173.197L144.927 211.421L117.207 163.05H93.8936ZM48 87.0566V96.2178L134.464 134.146V119.854L65.2559 90.9043L134.464 58.291V44L48 87.0566Z" fill="#2C3D9C"/>
<mask id="mask0_31_13" style="mask-type:alpha" maskUnits="userSpaceOnUse" x="27" y="23" width="394" height="402">
<path d="M125.103 25.2019C131.612 21.9603 139.336 22.3171 145.519 26.1452C151.701 29.9734 155.464 36.7278 155.464 43.9997V58.2907C155.464 66.4213 150.77 73.8219 143.415 77.2878L116.943 89.7624L142.567 100.48C150.379 103.748 155.464 111.387 155.464 119.854V134.145C155.464 141.236 151.885 147.847 145.949 151.725C143.157 153.549 140.02 154.654 136.806 155.014L145.105 169.497L155.067 152.454C158.833 146.011 165.735 142.051 173.197 142.051H195.41C200.052 142.051 204.475 143.582 208.061 146.288L208.779 144.362C211.845 136.15 219.688 130.706 228.453 130.706H244.241C247.751 130.706 251.147 131.582 254.152 133.191C255.313 132.992 256.506 132.889 257.724 132.889H277.917C289.515 132.89 298.917 142.292 298.917 153.889V177.669C300.651 177.497 302.402 177.412 304.168 177.412C318.359 177.412 331.332 182.692 340.833 193.879C350.442 204.912 353.806 218.956 353.806 233.041V278.48C353.806 290.078 344.403 299.48 332.806 299.48H331.752L408.62 337.759C415.751 341.311 420.259 348.591 420.259 356.557V365.718C420.259 374.054 415.329 381.601 407.695 384.95L321.231 422.877C314.738 425.725 307.246 425.104 301.31 421.226C295.374 417.348 291.796 410.736 291.796 403.645V389.354C291.796 380.87 296.901 373.219 304.735 369.963L330.313 359.331L303.803 346.768C296.47 343.294 291.796 335.906 291.796 327.792V313.5C291.796 306.442 295.339 299.872 301.2 295.991C298.891 294.459 296.902 292.482 295.356 290.182C291.586 295.79 285.182 299.48 277.917 299.48H257.724C246.126 299.48 236.724 290.078 236.724 278.48V231.896L215.084 289.87C212.019 298.082 204.175 303.526 195.41 303.526H179.623C173.882 303.526 168.445 301.18 164.521 297.12C161.624 298.628 158.332 299.48 154.84 299.48H134.464C122.866 299.48 113.464 290.078 113.464 278.48V236.986L75.8486 173.791C71.9858 167.301 71.9052 159.237 75.6377 152.672C79.3704 146.106 86.341 142.051 93.8936 142.051H100.207L39.5645 115.449C31.9308 112.1 27.0001 104.554 27 96.2185V87.0573C27 79.0909 31.5075 71.8097 38.6387 68.2585L125.103 25.2019ZM312.796 327.792L382.003 360.589L312.796 389.354V403.645L399.259 365.718V356.557L312.796 313.5V327.792ZM228.453 151.706L179.623 282.526H195.41L219.825 217.116L244.241 151.706H228.453ZM93.8936 163.051L134.464 231.209V278.48H154.84V231.025L195.41 163.051H173.197L144.927 211.421L117.207 163.051H93.8936ZM257.724 153.889V278.48H277.917V239.454C277.917 231.392 279.691 225.468 283.24 221.681C286.789 217.773 291.44 215.818 297.192 215.818L297.692 215.823C302.82 215.93 306.569 217.7 308.94 221.132C311.51 224.674 312.796 229.743 312.796 236.339V278.48H332.806V233.041C332.806 222.048 330.174 213.558 324.912 207.573C319.772 201.466 312.857 198.412 304.168 198.412C298.539 198.412 293.398 199.817 288.748 202.626C284.22 205.313 280.609 209.405 277.917 214.902V153.889H257.724ZM48 87.0573V96.2185L134.464 134.145V119.854L65.2559 90.905L134.464 58.2907V43.9997L48 87.0573Z" fill="black"/>
</mask>
<g mask="url(#mask0_31_13)">
<rect x="348.274" y="-144" width="316.337" height="690" transform="rotate(21 348.274 -144)" fill="#414974"/>
</g>
</svg>
