<svg width="512" height="512" viewBox="0 0 512 512" fill="none" xmlns="http://www.w3.org/2000/svg">
<rect width="512" height="512" fill="white"/>
<path d="M157.103 57.2022C163.612 53.9605 171.336 54.3173 177.519 58.1455C183.701 61.9737 187.464 68.7281 187.464 76V90.291C187.464 98.4216 182.77 105.821 175.415 109.287L148.943 121.763L174.567 132.48C182.378 135.748 187.464 143.387 187.464 151.854V166.146C187.464 173.236 183.885 179.847 177.949 183.726C175.157 185.55 172.02 186.653 168.806 187.014L177.105 201.497L187.067 184.453C190.833 178.01 197.735 174.05 205.197 174.05H227.41C232.052 174.05 236.475 175.583 240.061 178.288L240.779 176.361C243.845 168.15 251.688 162.705 260.453 162.705H276.241C279.751 162.705 283.147 163.582 286.152 165.191C287.313 164.993 288.506 164.889 289.724 164.889H309.917C321.515 164.889 330.917 174.291 330.917 185.889V209.669C332.651 209.497 334.402 209.412 336.168 209.412C350.359 209.412 363.332 214.692 372.833 225.879C382.442 236.913 385.806 250.956 385.806 265.041V310.48C385.805 322.078 376.403 331.48 364.806 331.48H363.752L440.62 369.759C447.751 373.31 452.259 380.591 452.259 388.558V397.719C452.259 406.054 447.329 413.601 439.695 416.949L353.231 454.877C346.738 457.725 339.246 457.104 333.31 453.226C327.374 449.347 323.796 442.736 323.796 435.646V421.354C323.796 412.869 328.901 405.218 336.735 401.962L362.313 391.331L335.803 378.769C328.47 375.294 323.796 367.905 323.796 359.791V345.5C323.796 338.442 327.339 331.872 333.2 327.991C330.891 326.459 328.902 324.482 327.356 322.183C323.586 327.79 317.182 331.48 309.917 331.48H289.724C278.126 331.48 268.724 322.078 268.724 310.48V263.896L247.084 321.87C244.019 330.082 236.175 335.526 227.41 335.526H211.623C205.882 335.526 200.445 333.18 196.521 329.12C193.624 330.628 190.332 331.479 186.84 331.479H166.464C154.866 331.479 145.464 322.077 145.464 310.479V268.985L107.849 205.791C103.986 199.301 103.905 191.237 107.638 184.671C111.37 178.105 118.341 174.05 125.894 174.05H132.207L71.5645 147.449C63.9307 144.101 59 136.554 59 128.218V119.057C59.0002 111.09 63.5077 103.81 70.6387 100.259L157.103 57.2022ZM344.796 359.791L414.003 392.588L344.796 421.354V435.646L431.259 397.719V388.558L344.796 345.5V359.791ZM260.453 183.705L211.623 314.526H227.41L251.825 249.115L276.241 183.705H260.453ZM289.724 185.889V310.48H309.917V271.454C309.917 263.393 311.691 257.468 315.24 253.682C318.789 249.773 323.44 247.818 329.192 247.818L329.692 247.823C334.82 247.93 338.569 249.7 340.94 253.132C343.51 256.674 344.796 261.743 344.796 268.339V310.48H364.806V265.041C364.806 254.048 362.174 245.558 356.912 239.573C351.772 233.466 344.857 230.412 336.168 230.412C330.539 230.412 325.398 231.817 320.748 234.626C316.22 237.313 312.609 241.406 309.917 246.902V185.889H289.724ZM125.894 195.05L166.464 263.209V310.479H186.84V263.025L227.41 195.05H205.197L176.927 243.421L149.207 195.05H125.894ZM80 119.057V128.218L166.464 166.146V151.854L97.2559 122.904L166.464 90.291V76L80 119.057Z" fill="#2C3D9C"/>
<mask id="mask0_31_13" style="mask-type:alpha" maskUnits="userSpaceOnUse" x="59" y="55" width="394" height="402">
<path d="M157.103 57.2019C163.612 53.9603 171.336 54.3171 177.519 58.1452C183.701 61.9734 187.464 68.7278 187.464 75.9997V90.2907C187.464 98.4213 182.77 105.822 175.415 109.288L148.943 121.762L174.567 132.48C182.379 135.748 187.464 143.387 187.464 151.854V166.145C187.464 173.236 183.885 179.847 177.949 183.725C175.157 185.549 172.02 186.654 168.806 187.014L177.105 201.497L187.067 184.454C190.833 178.011 197.735 174.051 205.197 174.051H227.41C232.052 174.051 236.475 175.582 240.061 178.288L240.779 176.362C243.845 168.15 251.688 162.706 260.453 162.706H276.241C279.751 162.706 283.147 163.582 286.152 165.191C287.313 164.992 288.506 164.889 289.724 164.889H309.917C321.515 164.89 330.917 174.292 330.917 185.889V209.669C332.651 209.497 334.402 209.412 336.168 209.412C350.359 209.412 363.332 214.692 372.833 225.879C382.442 236.912 385.806 250.956 385.806 265.041V310.48C385.806 322.078 376.403 331.48 364.806 331.48H363.752L440.62 369.759C447.751 373.311 452.259 380.591 452.259 388.557V397.718C452.259 406.054 447.329 413.601 439.695 416.95L353.231 454.877C346.738 457.725 339.246 457.104 333.31 453.226C327.374 449.348 323.796 442.736 323.796 435.645V421.354C323.796 412.87 328.901 405.219 336.735 401.963L362.313 391.331L335.803 378.768C328.47 375.294 323.796 367.906 323.796 359.792V345.5C323.796 338.442 327.339 331.872 333.2 327.991C330.891 326.459 328.902 324.482 327.356 322.182C323.586 327.79 317.182 331.48 309.917 331.48H289.724C278.126 331.48 268.724 322.078 268.724 310.48V263.896L247.084 321.87C244.019 330.082 236.175 335.526 227.41 335.526H211.623C205.882 335.526 200.445 333.18 196.521 329.12C193.624 330.628 190.332 331.48 186.84 331.48H166.464C154.866 331.48 145.464 322.078 145.464 310.48V268.986L107.849 205.791C103.986 199.301 103.905 191.237 107.638 184.672C111.37 178.106 118.341 174.051 125.894 174.051H132.207L71.5645 147.449C63.9308 144.1 59.0001 136.554 59 128.218V119.057C59 111.091 63.5075 103.81 70.6387 100.259L157.103 57.2019ZM344.796 359.792L414.003 392.589L344.796 421.354V435.645L431.259 397.718V388.557L344.796 345.5V359.792ZM260.453 183.706L211.623 314.526H227.41L251.825 249.116L276.241 183.706H260.453ZM125.894 195.051L166.464 263.209V310.48H186.84V263.025L227.41 195.051H205.197L176.927 243.421L149.207 195.051H125.894ZM289.724 185.889V310.48H309.917V271.454C309.917 263.392 311.691 257.468 315.24 253.681C318.789 249.773 323.44 247.818 329.192 247.818L329.692 247.823C334.82 247.93 338.569 249.7 340.94 253.132C343.51 256.674 344.796 261.743 344.796 268.339V310.48H364.806V265.041C364.806 254.048 362.174 245.558 356.912 239.573C351.772 233.466 344.857 230.412 336.168 230.412C330.539 230.412 325.398 231.817 320.748 234.626C316.22 237.313 312.609 241.405 309.917 246.902V185.889H289.724ZM80 119.057V128.218L166.464 166.145V151.854L97.2559 122.905L166.464 90.2907V75.9997L80 119.057Z" fill="black"/>
</mask>
<g mask="url(#mask0_31_13)">
<rect x="380.274" y="-112" width="316.337" height="690" transform="rotate(21 380.274 -112)" fill="#414974"/>
</g>
</svg>
